# xmcd
# 
# Track frame offsets:
#     150
#     22682
#     42660
#     62450
#     82275
#     102490
#     119830
#     138942
#     157715
#     178750
#     200287
#     220617
#     237227
#     255030
#     275712
#     295535
# 
# Disc length: 4218
# 
# Revision: 2
# Processed by: cddbd v1.5.2PL0 Copyright (c) Steve Scherf et al.
# Submitted via: fre:ac v1.0.17
# 
DISCID=dc107810
DTITLE=藤あや子 - 藤あやこヒット全曲集’94
DYEAR=1993
DGENRE=World
TTITLE0=藤あや子/むらさき雨情
TTITLE1=藤あや子/なみだ草
TTITLE2=藤あや子/面影しぐれ
TTITLE3=藤あや子/酒きずな
TTITLE4=藤あや子/蜩
TTITLE5=藤あや子/一輪ざし
TTITLE6=藤あや子/こころ酒
TTITLE7=藤あや子/雨夜酒
TTITLE8=藤あや子/風港
TTITLE9=藤あや子/北半島
TTITLE10=藤あや子/無言坂
TTITLE11=藤あや子/北ホテル
TTITLE12=藤あや子/たのみ酒
TTITLE13=藤あや子/おんな
TTITLE14=面影しぐれ
TTITLE15=風港
EXTD=
EXTT0=
EXTT1=
EXTT2=
EXTT3=
EXTT4=
EXTT5=
EXTT6=
EXTT7=
EXTT8=
EXTT9=
EXTT10=
EXTT11=
EXTT12=
EXTT13=
EXTT14=
EXTT15=
PLAYORDER=
